<svg id="Multicolor" xmlns="http://www.w3.org/2000/svg" viewBox="0 0 100 112"><defs><style>.cls-1{fill:#e8f4fa;}.cls-19,.cls-2,.cls-27{fill:#fff;}.cls-3{fill:none;}.cls-11,.cls-12,.cls-15,.cls-16,.cls-19,.cls-22,.cls-25,.cls-26,.cls-27,.cls-3,.cls-4,.cls-5,.cls-6,.cls-7{stroke:#191816;stroke-linejoin:round;}.cls-11,.cls-12,.cls-15,.cls-16,.cls-22,.cls-25,.cls-26,.cls-27,.cls-3,.cls-4,.cls-5,.cls-6,.cls-7{stroke-linecap:round;}.cls-20,.cls-4{fill:#ff8a14;}.cls-5{fill:#ffe500;}.cls-6{fill:#6dd627;}.cls-7{fill:#9f5ae5;}.cls-8{fill:#c0dceb;}.cls-9{fill:#adc4d9;}.cls-10{fill:#f0f0f0;}.cls-11{fill:#ff6242;}.cls-12{fill:#00b8f0;}.cls-13,.cls-15{fill:#724f3d;}.cls-14{fill:#a86c4d;}.cls-16{fill:#d18660;}.cls-17{fill:#bd704a;}.Graphic-Style-4,.cls-18{fill:#191816;}.cls-21{fill:#ffaa54;}.cls-22{fill:#00dba8;}.Graphic-Style-4{opacity:0.15;}.cls-23,.cls-25{fill:#dea47a;}.cls-24{fill:#bf8256;}.cls-26{fill:#915e3a;}</style></defs><title>23- teaching-midmap-female-african-american</title><g id="Background"><g id="New_Symbol_10-23" data-name="New Symbol 10"><path class="cls-1" d="M90,56A40,40,0,1,0,13.56,72.5H86.43A39.85,39.85,0,0,0,90,56Z"/><path class="cls-2" d="M13.56,72.5a40,40,0,0,0,72.87,0Z"/><line class="cls-3" x1="10.99" y1="72.5" x2="88.99" y2="72.5"/><line class="cls-3" x1="6.49" y1="72.5" x2="8.99" y2="72.5"/><line class="cls-3" x1="90.99" y1="72.5" x2="93.49" y2="72.5"/></g></g><g id="Scene"><rect class="cls-4" x="30.58" y="78.14" width="14.38" height="3.45"/><rect class="cls-5" x="33.45" y="74.69" width="14.38" height="3.45"/><rect class="cls-6" x="31.73" y="71.24" width="14.38" height="3.45"/><rect class="cls-7" x="18.56" y="74.88" width="14.38" height="3.45" transform="translate(-33.77 21.94) rotate(-28.86)"/><polygon class="cls-8" points="45.4 58.1 45.4 62.9 22.59 62.9 22.59 58.1 19 58.1 19 72.5 22.59 72.5 22.59 65.3 45.4 65.3 45.4 72.5 48.99 72.5 48.99 58.1 45.4 58.1"/><rect class="cls-9" x="45.39" y="58.1" width="3.6" height="2.44"/><rect class="cls-9" x="18.99" y="58.1" width="3.6" height="2.44"/><path class="cls-10" d="M15,30.5H53a2,2,0,0,1,2,2V58.1a0,0,0,0,1,0,0H15a2,2,0,0,1-2-2V32.5A2,2,0,0,1,15,30.5Z"/><path class="cls-2" d="M13,49.24,31.73,30.5H15a2,2,0,0,0-2,2Z"/><path class="cls-3" d="M15,30.5H53a2,2,0,0,1,2,2V58.1a0,0,0,0,1,0,0H15a2,2,0,0,1-2-2V32.5A2,2,0,0,1,15,30.5Z"/><polygon class="cls-3" points="45.4 58.1 45.4 62.9 22.59 62.9 22.59 58.1 19 58.1 19 72.5 22.59 72.5 22.59 65.3 45.4 65.3 45.4 72.5 48.99 72.5 48.99 58.1 45.4 58.1"/><line class="cls-3" x1="34.08" y1="40.62" x2="38.12" y2="36.57"/><circle class="cls-5" cx="39.39" cy="35.3" r="1.8"/><line class="cls-3" x1="34.67" y1="47.37" x2="38.72" y2="51.43"/><circle class="cls-5" cx="39.99" cy="52.7" r="1.8"/><line class="cls-3" x1="27.93" y1="40.63" x2="24.9" y2="37.6"/><circle class="cls-6" cx="23.19" cy="35.9" r="2.4"/><line class="cls-3" x1="27.32" y1="47.37" x2="23.27" y2="51.43"/><circle class="cls-5" cx="21.99" cy="52.7" r="1.8"/><circle class="cls-11" cx="30.99" cy="44.3" r="4.8"/><line class="cls-3" x1="35.79" y1="44.3" x2="39.39" y2="44.3"/><circle class="cls-12" cx="42.39" cy="44.3" r="3"/><path class="cls-13" d="M66.79,34.69c.66-.39.72-1.5.14-2.49a2.66,2.66,0,0,0-1-1,1.19,1.19,0,0,0,.87-.53c.36-.67-.16-1.65-1.16-2.2a2.34,2.34,0,0,0-1.86-.23l-.3-.35A1.24,1.24,0,0,0,64.3,27c.13-.75-.67-1.52-1.8-1.71a2.31,2.31,0,0,0-2,.45h0a1.09,1.09,0,0,0,.41-.82c0-.76-.92-1.38-2.07-1.38s-2.07.62-2.07,1.38c0-.76-.92-1.38-2.07-1.38s-2.07.62-2.07,1.38a1.1,1.1,0,0,0,.42.82h0a2.31,2.31,0,0,0-2-.45c-1.13.19-1.94,1-1.8,1.71a1.24,1.24,0,0,0,.86.89c-.1.12-.21.23-.3.35a2.34,2.34,0,0,0-1.86.23c-1,.55-1.52,1.53-1.16,2.2a1.17,1.17,0,0,0,.87.53,2.66,2.66,0,0,0-1,1c-.58,1-.52,2.1.14,2.49a1,1,0,0,0,.79.09,2.22,2.22,0,0,0-.5,2.06c.22,1.13,1,1.92,1.75,1.77a.79.79,0,0,0,.3-.12,9,9,0,0,0,15.35,0,.81.81,0,0,0,.29.12c.75.15,1.54-.64,1.76-1.77a2.25,2.25,0,0,0-.5-2.06A1,1,0,0,0,66.79,34.69Z"/><path class="cls-14" d="M66.93,32.2a2.66,2.66,0,0,0-1-1,1.19,1.19,0,0,0,.87-.53c.36-.67-.16-1.65-1.16-2.2a2.34,2.34,0,0,0-1.86-.23l-.3-.35A1.24,1.24,0,0,0,64.3,27c.13-.75-.67-1.52-1.8-1.71a2.31,2.31,0,0,0-2,.45h0a1.09,1.09,0,0,0,.41-.82c0-.76-.92-1.38-2.07-1.38s-2.07.62-2.07,1.38c0-.76-.92-1.38-2.07-1.38s-2.07.62-2.07,1.38a1.1,1.1,0,0,0,.42.82h0a2.31,2.31,0,0,0-2-.45c-1.13.19-1.94,1-1.8,1.71a1.24,1.24,0,0,0,.86.89c-.1.12-.21.23-.3.35a2.34,2.34,0,0,0-1.86.23c-1,.55-1.52,1.53-1.16,2.2a1.17,1.17,0,0,0,.87.53,2.66,2.66,0,0,0-1,1c-.58,1-.52,2.1.14,2.49a1,1,0,0,0,.64.12,3.64,3.64,0,0,1,.33-.76,2.35,2.35,0,0,1,.92-.91,1,1,0,0,1-.77-.47c-.32-.6.14-1.48,1-2a2.78,2.78,0,0,1,1.93-.52,1.07,1.07,0,0,1-.77-.79c-.12-.67.6-1.35,1.6-1.53a2.07,2.07,0,0,1,1.76.41h0a1,1,0,0,1-.36-.73c0-.68.82-1.23,1.84-1.23s1.84.55,1.84,1.23c0-.68.83-1.23,1.85-1.23s1.84.55,1.84,1.23a1,1,0,0,1-.36.73h0a2.06,2.06,0,0,1,1.76-.41c1,.18,1.72.86,1.6,1.53a1.09,1.09,0,0,1-.77.79,3.25,3.25,0,0,1,1.92.52c.9.48,1.36,1.36,1,2a1.05,1.05,0,0,1-.77.47,2.42,2.42,0,0,1,.92.91,3.14,3.14,0,0,1,.29.75,1,1,0,0,0,.68-.11C67.45,34.3,67.51,33.19,66.93,32.2Z"/><path class="cls-3" d="M66.79,34.69c.66-.39.72-1.5.14-2.49a2.66,2.66,0,0,0-1-1,1.19,1.19,0,0,0,.87-.53c.36-.67-.16-1.65-1.16-2.2a2.34,2.34,0,0,0-1.86-.23l-.3-.35A1.24,1.24,0,0,0,64.3,27c.13-.75-.67-1.52-1.8-1.71a2.31,2.31,0,0,0-2,.45h0a1.09,1.09,0,0,0,.41-.82c0-.76-.92-1.38-2.07-1.38s-2.07.62-2.07,1.38c0-.76-.92-1.38-2.07-1.38s-2.07.62-2.07,1.38a1.1,1.1,0,0,0,.42.82h0a2.31,2.31,0,0,0-2-.45c-1.13.19-1.94,1-1.8,1.71a1.24,1.24,0,0,0,.86.89c-.1.12-.21.23-.3.35a2.34,2.34,0,0,0-1.86.23c-1,.55-1.52,1.53-1.16,2.2a1.17,1.17,0,0,0,.87.53,2.66,2.66,0,0,0-1,1c-.58,1-.52,2.1.14,2.49a1,1,0,0,0,.79.09,2.22,2.22,0,0,0-.5,2.06c.22,1.13,1,1.92,1.75,1.77a.79.79,0,0,0,.3-.12,9,9,0,0,0,15.35,0,.81.81,0,0,0,.29.12c.75.15,1.54-.64,1.76-1.77a2.25,2.25,0,0,0-.5-2.06A1,1,0,0,0,66.79,34.69Z"/><path class="cls-15" d="M60.34,48.19c0-1.15.62-2.07,1.38-2.07s1.38.92,1.38,2.07-.62,2.07-1.38,2.07S60.34,49.33,60.34,48.19Z"/><path class="cls-15" d="M60.34,45.43c0-1.15.62-2.07,1.38-2.07s1.38.92,1.38,2.07-.62,2.07-1.38,2.07S60.34,46.57,60.34,45.43Z"/><path class="cls-15" d="M60.34,42.67c0-1.15.62-2.07,1.38-2.07s1.38.92,1.38,2.07-.62,2.07-1.38,2.07S60.34,43.81,60.34,42.67Z"/><path class="cls-15" d="M63.79,52.33c0,.8-1,2.17-1.63,2.92a.57.57,0,0,1-.88,0c-.61-.75-1.63-2.12-1.63-2.92a2.07,2.07,0,0,1,4.14,0Z"/><path class="cls-15" d="M53.21,48.19c0-1.15-.62-2.07-1.38-2.07s-1.38.92-1.38,2.07.62,2.07,1.38,2.07S53.21,49.33,53.21,48.19Z"/><path class="cls-15" d="M53.21,45.43c0-1.15-.62-2.07-1.38-2.07s-1.38.92-1.38,2.07.62,2.07,1.38,2.07S53.21,46.57,53.21,45.43Z"/><path class="cls-15" d="M53.21,42.67c0-1.15-.62-2.07-1.38-2.07s-1.38.92-1.38,2.07.62,2.07,1.38,2.07S53.21,43.81,53.21,42.67Z"/><path class="cls-15" d="M49.76,52.33c0,.8,1,2.17,1.63,2.92a.57.57,0,0,0,.88,0c.61-.75,1.63-2.12,1.63-2.92a2.07,2.07,0,0,0-4.14,0Z"/><path class="cls-16" d="M63.66,35.36l-1-3.49A1.39,1.39,0,0,0,61.05,31a15.86,15.86,0,0,1-4.28.82A15.87,15.87,0,0,1,52.5,31a1.39,1.39,0,0,0-1.65.91l-1,3.49a1.41,1.41,0,0,0-1.15,1.38A1.43,1.43,0,0,0,50,38.15a6.89,6.89,0,0,0,13.49,0,1.43,1.43,0,0,0,1.29-1.41A1.4,1.4,0,0,0,63.66,35.36Z"/><circle class="cls-17" cx="53.04" cy="37.6" r="0.86"/><circle class="cls-17" cx="60.51" cy="37.6" r="0.86"/><path class="cls-3" d="M58.5,39.61a2.86,2.86,0,0,1-3.45,0"/><path class="cls-18" d="M54.19,34.44a.86.86,0,1,0,.86.86.86.86,0,0,0-.86-.86Z"/><path class="cls-18" d="M59.36,34.44a.86.86,0,1,0,.86.86.86.86,0,0,0-.86-.86Z"/><path class="cls-19" d="M56.77,45.94A10.35,10.35,0,0,0,46.42,56.29V67.21h13a7.71,7.71,0,0,0,7.71-7.71V56.29A10.35,10.35,0,0,0,56.77,45.94Z"/><path class="cls-20" d="M56.77,61.2h0L51.14,47.6a10.36,10.36,0,0,0-4.72,8.69V68.94h4V67.21h6.32Z"/><path class="cls-21" d="M52.7,51.37,51.14,47.6a10.36,10.36,0,0,0-4.72,8.69v4.6A10.36,10.36,0,0,1,52.7,51.37Z"/><path class="cls-3" d="M56.77,61.2h0L51.14,47.6a10.36,10.36,0,0,0-4.72,8.69V68.94h4V67.21h6.32Z"/><path class="cls-20" d="M67.12,59.5V56.29a10.32,10.32,0,0,0-4.71-8.68h0L56.77,61.2v6h2.64A7.71,7.71,0,0,0,67.12,59.5Z"/><path class="cls-21" d="M62.41,47.61h0l-1.56,3.77a10.36,10.36,0,0,1,6.25,8.77c0-.21,0-.43,0-.64V56.29A10.32,10.32,0,0,0,62.41,47.61Z"/><path class="cls-3" d="M67.12,59.5V56.29a10.32,10.32,0,0,0-4.71-8.68h0L56.77,61.2v6h2.64A7.71,7.71,0,0,0,67.12,59.5Z"/><path class="cls-16" d="M56.77,45.94a10.29,10.29,0,0,0-3.25.52c1.43,3.57,5.07,3.6,6.51,0A10.35,10.35,0,0,0,56.77,45.94Z"/><rect class="cls-22" x="55.62" y="49.39" width="2.3" height="2.3"/><path class="cls-22" d="M55.62,49.39l-2.36-.8a1.16,1.16,0,0,0-.93.09,1.12,1.12,0,0,0-.56.75,7.09,7.09,0,0,0,0,2.9,1.16,1.16,0,0,0,.68.85,1.17,1.17,0,0,0,1.09-.1l2.06-1.39Z"/><path class="cls-22" d="M57.92,49.39l2.37-.8a1.16,1.16,0,0,1,.93.09,1.12,1.12,0,0,1,.56.75,7.09,7.09,0,0,1,0,2.9,1.16,1.16,0,0,1-1.77.75l-2.07-1.39Z"/><ellipse class="Graphic-Style-4" cx="63.22" cy="82.69" rx="20.66" ry="2.07"/><path class="cls-23" d="M44.38,61.62H67.51a0,0,0,0,1,0,0v20a0,0,0,0,1,0,0H45.38a1,1,0,0,1-1-1v-19A0,0,0,0,1,44.38,61.62Z"/><rect class="cls-24" x="44.38" y="61.62" width="23.14" height="1.65"/><path class="cls-3" d="M44.38,61.62H67.51a0,0,0,0,1,0,0v20a0,0,0,0,1,0,0H45.38a1,1,0,0,1-1-1v-19A0,0,0,0,1,44.38,61.62Z"/><rect class="cls-23" x="67.51" y="61.62" width="14.87" height="9.92"/><rect class="cls-24" x="67.51" y="61.62" width="14.87" height="1.65"/><rect class="cls-3" x="67.51" y="61.62" width="14.87" height="9.92"/><path class="cls-25" d="M67.51,71.54H82.39a0,0,0,0,1,0,0v9.05a1,1,0,0,1-1,1H67.51a0,0,0,0,1,0,0V71.54A0,0,0,0,1,67.51,71.54Z"/><path class="cls-26" d="M77.54,64.93H72.35a1.14,1.14,0,0,1-1-.64L70,61.62h9.92l-1.34,2.67A1.15,1.15,0,0,1,77.54,64.93Z"/><path class="cls-26" d="M77.54,74.84H72.35a1.13,1.13,0,0,1-1-.63L70,71.54h9.92l-1.34,2.67A1.14,1.14,0,0,1,77.54,74.84Z"/><rect class="cls-25" x="44.38" y="64.93" width="23.14" height="13.22"/><line class="cls-3" x1="55.94" y1="64.93" x2="55.94" y2="78.15"/><path class="cls-10" d="M43.55,61.62H83.21a2.48,2.48,0,0,0,2.48-2.48h0a2.48,2.48,0,0,0-2.48-2.48H43.55a2.48,2.48,0,0,0-2.48,2.48h0A2.48,2.48,0,0,0,43.55,61.62Z"/><path class="cls-2" d="M43.55,58.68H83.21a2.48,2.48,0,0,1,2.27,1.47,2.61,2.61,0,0,0,.21-1,2.48,2.48,0,0,0-2.48-2.48H43.55a2.48,2.48,0,0,0-2.48,2.48,2.61,2.61,0,0,0,.21,1A2.48,2.48,0,0,1,43.55,58.68Z"/><path class="cls-3" d="M43.55,61.62H83.21a2.48,2.48,0,0,0,2.48-2.48h0a2.48,2.48,0,0,0-2.48-2.48H43.55a2.48,2.48,0,0,0-2.48,2.48h0A2.48,2.48,0,0,0,43.55,61.62Z"/><path class="cls-6" d="M77.33,47.69c0,2.67-1.2,4.83-2.68,4.83S72,50.36,72,47.69a6.84,6.84,0,0,1,2.28-4.47.59.59,0,0,1,.8,0A6.81,6.81,0,0,1,77.33,47.69Z"/><path class="cls-27" d="M78.79,56.66H70.51l-1.13-3.38a.58.58,0,0,1,.55-.76h9.44a.58.58,0,0,1,.55.76Z"/><path class="cls-6" d="M74.65,52.52l-3.29-7.69a.58.58,0,0,0-1.07,0l-.51,1.28a4.14,4.14,0,0,0,2.31,5.38Z"/><path class="cls-6" d="M74.65,52.52,78,44.83a.56.56,0,0,1,.53-.35.59.59,0,0,1,.53.36l.51,1.28a4.13,4.13,0,0,1-2.31,5.38Z"/></g></svg>