<svg id="Multicolor" xmlns="http://www.w3.org/2000/svg" viewBox="0 0 100 112"><defs><style>.cls-1{fill:#e8f4fa;}.cls-2{fill:#00b8f0;}.cls-3{fill:#4acfff;}.cls-4,.cls-5{fill:none;}.cls-11,.cls-4,.cls-8,.cls-9{stroke:#191816;}.cls-11,.cls-4,.cls-5,.cls-8,.cls-9{stroke-linecap:round;stroke-linejoin:round;}.cls-5{stroke:#f0f0f0;}.cls-6{fill:#009fd9;}.cls-7{fill:#ff6242;}.cls-8{fill:#f7e5c6;}.cls-9{fill:#ffcabf;}.cls-10{fill:#ff866e;}.cls-11{fill:#f0f0f0;}.cls-12{fill:#6dd627;}.cls-13{fill:#9ceb60;}.cls-14{fill:#ebcb00;}.cls-15{fill:#ffe500;}</style></defs><title>32- blueprint-2</title><g id="Background"><g id="New_Symbol_37" data-name="New Symbol 37"><circle class="cls-1" cx="50" cy="56" r="40"/></g></g><g id="Scene"><rect class="cls-2" x="23.98" y="46.47" width="48.3" height="33.12" rx="1" ry="1"/><path class="cls-3" d="M63.31,46.47H25.13A1.14,1.14,0,0,0,24,47.62V78.44a1.15,1.15,0,0,0,1.15,1.15h5.06Z"/><rect class="cls-4" x="23.98" y="46.47" width="48.3" height="33.12" rx="1" ry="1"/><rect class="cls-5" x="28.12" y="50.61" width="40.02" height="24.84"/><path class="cls-5" d="M28.12,67.17H35.4a1,1,0,0,1,1,1v7.28a0,0,0,0,1,0,0H28.12a0,0,0,0,1,0,0V67.17A0,0,0,0,1,28.12,67.17Z"/><path class="cls-5" d="M49.82,67.17h11.8a1,1,0,0,1,1,1v7.28a0,0,0,0,1,0,0H48.82a0,0,0,0,1,0,0V68.17A1,1,0,0,1,49.82,67.17Z"/><line class="cls-5" x1="48.82" y1="71.31" x2="62.62" y2="71.31"/><line class="cls-5" x1="28.12" y1="58.89" x2="68.14" y2="58.89"/><line class="cls-5" x1="55.72" y1="50.61" x2="55.72" y2="58.89"/><line class="cls-5" x1="59.86" y1="50.61" x2="59.86" y2="58.89"/><path class="cls-6" d="M81.48,44.7c-.72-.28-.51-2.52.45-5s2.32-4.28,3-4,.51,2.51-.45,5l-2.25,5.79a1.38,1.38,0,0,1-1.78.79L50.88,35.8A1.38,1.38,0,0,1,50.09,34l4-10.3L85,35.69"/><path class="cls-4" d="M81.48,44.7c-.72-.28-.51-2.52.45-5s2.32-4.28,3-4,.51,2.51-.45,5l-2.25,5.79a1.38,1.38,0,0,1-1.78.79L50.88,35.8A1.38,1.38,0,0,1,50.09,34l4-10.3L85,35.69"/><path class="cls-2" d="M85,35.69c-.71-.28-2.06,1.52-3,4s-1.17,4.73-.45,5l-30.89-12c-.71-.27-.5-2.51.46-5s2.32-4.28,3-4Z"/><path class="cls-3" d="M54.08,23.72c-.66-.25-1.89,1.31-2.84,3.55a.65.65,0,0,1,.5-.1L82.23,39c.93-2.11,2.09-3.55,2.73-3.3Z"/><path class="cls-4" d="M85,35.69c-.71-.28-2.06,1.52-3,4s-1.17,4.73-.45,5l-30.89-12c-.71-.27-.5-2.51.46-5s2.32-4.28,3-4Z"/><rect class="cls-7" x="24.49" y="38" width="4.14" height="19.32" transform="translate(41.47 -4.82) rotate(44.99)"/><polygon class="cls-8" points="36.8 37.42 31.92 39.37 34.85 42.3 36.8 37.42"/><line class="cls-4" x1="36.8" y1="37.42" x2="37.78" y2="36.44"/><path class="cls-9" d="M16.19,53.89h4.14a0,0,0,0,1,0,0V57a1,1,0,0,1-1,1H17.19a1,1,0,0,1-1-1V53.89a0,0,0,0,1,0,0Z" transform="translate(44.94 3.49) rotate(45.03)"/><rect class="cls-10" x="24.77" y="37.33" width="2.23" height="19.32" transform="translate(40.79 -4.54) rotate(44.98)"/><rect class="cls-4" x="24.49" y="38" width="4.14" height="19.32" transform="translate(41.47 -4.82) rotate(44.99)"/><path class="cls-11" d="M20.07,68.18a1.15,1.15,0,0,1-1.46-.73l-1.87-5.69a1.15,1.15,0,0,1,.73-1.44L27,57.09a2.76,2.76,0,0,1,3.49,1.76l1.29,3.93a1.37,1.37,0,0,1-.88,1.74Z"/><path class="cls-12" d="M25.7,57.52l2.59,7.87-8.22,2.78a1.12,1.12,0,0,1-.88-.06,1.1,1.1,0,0,1-.58-.67l-1.87-5.68a1.16,1.16,0,0,1,.73-1.45Z"/><polygon class="cls-13" points="25.61 66.29 28.29 65.39 25.7 57.52 23.04 58.43 25.61 66.29"/><path class="cls-4" d="M25.7,57.52l2.59,7.87-8.22,2.78a1.12,1.12,0,0,1-.88-.06,1.1,1.1,0,0,1-.58-.67l-1.87-5.68a1.16,1.16,0,0,1,.73-1.45Z"/><rect class="cls-14" x="73.4" y="51.88" width="4.14" height="19.32" transform="translate(-21.75 55.99) rotate(-35.93)"/><polygon class="cls-8" points="66.97 49.8 68.13 54.93 71.48 52.5 66.97 49.8"/><line class="cls-4" x1="66.97" y1="49.8" x2="66.16" y2="48.69"/><path class="cls-9" d="M80.29,69h4.14a0,0,0,0,1,0,0v3.14a1,1,0,0,1-1,1H81.29a1,1,0,0,1-1-1V69A0,0,0,0,1,80.29,69Z" transform="translate(-26.01 61.83) rotate(-35.92)"/><rect class="cls-15" x="75.28" y="51.27" width="2.07" height="19.32" transform="translate(-21.23 56.33) rotate(-35.91)"/><rect class="cls-4" x="73.4" y="51.88" width="4.14" height="19.32" transform="translate(-21.75 55.99) rotate(-35.93)"/></g></svg>