<svg xmlns="http://www.w3.org/2000/svg" viewBox="0 0 240 240" role="img" aria-labelledby="title">
  <title id="title">Structured feedback loop illustration</title>
  <circle cx="120" cy="120" r="112" fill="#F5EEF9"/>
  <path d="M44 171c18 29 54 42 91 36 39-6 70-30 75-68 5-39-14-75-50-91-33-15-74-10-99 15-27 27-34 74-17 108z" fill="#E8D8F1"/>
  <circle cx="190" cy="55" r="14" fill="#F8C14A" opacity="0.9"/>
  <circle cx="54" cy="72" r="8" fill="#F8C14A" opacity="0.65"/>
  <g transform="translate(50 45) scale(0.116)" fill="#5B3D77">
    <path d="m310.92 1004.4 31.922 105.28 125.63-119.62c5.3438-5.0625 12.141-7.5469 18.938-7.5469v-0.09375h580.4v-915h-935.58v915h151.69c13.312 0 24.422 9.4688 27 21.984zm249.98-163.5c10.781 10.688 10.781 28.078 0.09375 38.859s-28.078 10.781-38.859 0.09375l-96.375-96.047c-10.781-10.688-10.781-28.078-0.09375-38.859l96.469-96.141c10.781-10.688 28.172-10.641 38.859 0.09375 10.688 10.781 10.641 28.172-0.09375 38.859l-49.172 49.031h285.19c36.281 0 69.328-14.859 93.281-38.859 23.953-23.953 38.859-56.953 38.859-93.281 0-36.281-14.859-69.328-38.859-93.281-23.953-23.953-57-38.812-93.281-38.812h-329.9c-15.234 0-27.562-12.328-27.562-27.562s12.328-27.562 27.562-27.562h329.9c51.516 0 98.297 21.047 132.24 54.984 33.891 33.891 54.984 80.719 54.984 132.24s-21.047 98.297-54.984 132.24c-33.891 33.891-80.766 54.984-132.24 54.984h-285.19zm78.188-666.37c-10.781-10.688-10.781-28.078-0.09375-38.859s28.078-10.781 38.859-0.09375l96.375 96.047c10.781 10.688 10.781 28.078 0.09375 38.859l-96.469 96.141c-10.781 10.688-28.172 10.641-38.859-0.09375-10.688-10.781-10.641-28.172 0.09375-38.859l49.172-49.031h-285.19c-36.281 0-69.328 14.859-93.281 38.859-23.953 23.953-38.859 56.953-38.859 93.281 0 36.281 14.859 69.328 38.859 93.281 23.953 23.953 57 38.859 93.281 38.859h14.062c15.234 0 27.562 12.328 27.562 27.562 0 15.188-12.328 27.562-27.562 27.562h-14.062c-51.516 0-98.297-21.047-132.24-54.984-33.891-33.891-54.984-80.719-54.984-132.24 0-51.52 21.047-98.297 54.984-132.24 33.891-33.891 80.766-54.984 132.24-54.984h285.19l-49.172-49.031zm-335.81 993.71-39.656-130.74h-158.95c-15.234 0-27.562-12.328-27.562-27.562v-970.13c0-15.234 12.328-27.562 27.562-27.562h990.71c15.188 0 27.562 12.328 27.562 27.562v970.13c0 15.234-12.328 27.562-27.562 27.562h-597.05l-149.86 142.69-0.046875-0.046875c-3 2.8594-6.7031 5.0625-10.922 6.375-14.531 4.4062-29.812-3.7969-34.219-18.281z"/>
  </g>
</svg>
