<svg id="Multicolor" xmlns="http://www.w3.org/2000/svg" viewBox="0 0 100 112"><defs><style>.cls-1{fill:#e8f4fa;}.cls-11,.cls-2{fill:#fff;}.cls-3,.cls-8{fill:none;}.cls-11,.cls-12,.cls-3,.cls-4,.cls-8{stroke:#191816;stroke-linejoin:round;}.cls-12,.cls-3{stroke-linecap:round;}.cls-4{fill:#daedf7;}.cls-5{fill:#191816;opacity:0.15;}.cls-12,.cls-6{fill:#ffe500;}.cls-7{fill:#fff48c;}.cls-9{fill:#ebcb00;}.cls-10{fill:#ff6242;}</style></defs><title>04- law-document</title><g id="Background"><g id="New_Symbol_28-4" data-name="New Symbol 28"><path class="cls-1" d="M90.16,55.92a40,40,0,1,0-76.44,16.5H86.59A39.7,39.7,0,0,0,90.16,55.92Z"/><path class="cls-2" d="M13.72,72.42a40,40,0,0,0,72.87,0Z"/><line class="cls-3" x1="10.66" y1="72.42" x2="88.66" y2="72.42"/><line class="cls-3" x1="6.16" y1="72.42" x2="8.66" y2="72.42"/><line class="cls-3" x1="90.66" y1="72.42" x2="93.16" y2="72.42"/></g></g><g id="Scene"><path class="cls-2" d="M22.94,72.68a5.5,5.5,0,0,0,5.5-5.5V31.45a5.5,5.5,0,0,1,5.5-5.5H61.43a5.5,5.5,0,0,0-5.5,5.5V67.18a5.5,5.5,0,0,1-5.5,5.5Z"/><path class="cls-4" d="M55.93,31.45A5.5,5.5,0,0,1,62,26a5.67,5.67,0,0,1,5,5.71v2.74a1.15,1.15,0,0,1-1.15,1.15H55.93Z"/><path class="cls-1" d="M28.44,67v.23a5.5,5.5,0,0,1-5.5,5.5H50.43a5.5,5.5,0,0,0,5.5-5.5V67Z"/><ellipse class="cls-5" cx="63.38" cy="76.8" rx="12.03" ry="1.72"/><path class="cls-6" d="M57.87,71.31H69.57a2.4,2.4,0,0,1,2.4,2.4v1.41a1,1,0,0,1-1,1H56.47a1,1,0,0,1-1-1V73.71A2.4,2.4,0,0,1,57.87,71.31Z"/><path class="cls-7" d="M55.57,73.37h16.3a2.73,2.73,0,0,0-2.65-2.06h-11A2.73,2.73,0,0,0,55.57,73.37Z"/><path class="cls-8" d="M22.94,72.68h0a5.5,5.5,0,0,0,5.5-5.5V31.45a5.5,5.5,0,0,1,5.5-5.5H61.43a5.5,5.5,0,0,0-5.5,5.5V67.18a5.5,5.5,0,0,1-5.5,5.5Z"/><line class="cls-3" x1="40.12" y1="36.94" x2="51.81" y2="36.94"/><line class="cls-3" x1="40.12" y1="42.44" x2="51.81" y2="42.44"/><polygon class="cls-6" points="27.37 36.98 25.85 49.2 31.19 46.15 36.54 49.2 35.01 36.98 27.37 36.98"/><line class="cls-3" x1="40.12" y1="47.94" x2="47" y2="47.94"/><line class="cls-3" x1="32.57" y1="53.44" x2="44.94" y2="53.44"/><line class="cls-3" x1="32.57" y1="58.94" x2="42.19" y2="58.94"/><line class="cls-3" x1="32.57" y1="64.43" x2="42.19" y2="64.43"/><path class="cls-9" d="M35,37H27.37l-.69,5.51a4.81,4.81,0,0,1,1.88.08c.9.37,1.6,2,2.63,2s1.73-1.68,2.63-2a4.81,4.81,0,0,1,1.88-.08Z"/><polygon class="cls-8" points="27.37 36.98 25.85 49.2 31.19 46.15 36.54 49.2 35.01 36.98 27.37 36.98"/><path class="cls-10" d="M39.59,32.4c0,1-1.67,1.73-2.05,2.63s.29,2.61-.41,3.31-2.38,0-3.31.41-1.59,2-2.63,2-1.73-1.67-2.63-2S26,39,25.25,38.34s0-2.38-.41-3.31-2.05-1.59-2.05-2.63,1.68-1.73,2.05-2.63-.29-2.6.41-3.31,2.38,0,3.31-.41S30.16,24,31.19,24s1.73,1.68,2.63,2.05,2.61-.29,3.31.41,0,2.38.41,3.31S39.59,31.37,39.59,32.4Z"/><path class="cls-8" d="M39.59,32.4c0,1-1.67,1.73-2.05,2.63s.29,2.61-.41,3.31-2.38,0-3.31.41-1.59,2-2.63,2-1.73-1.67-2.63-2S26,39,25.25,38.34s0-2.38-.41-3.31-2.05-1.59-2.05-2.63,1.68-1.73,2.05-2.63-.29-2.6.41-3.31,2.38,0,3.31-.41S30.16,24,31.19,24s1.73,1.68,2.63,2.05,2.61-.29,3.31.41,0,2.38.41,3.31S39.59,31.37,39.59,32.4Z"/><path class="cls-11" d="M35,32.4a3.82,3.82,0,1,1-3.82-3.82A3.82,3.82,0,0,1,35,32.4Z"/><path class="cls-12" d="M76.09,52.06a1.37,1.37,0,0,1-1.38-1.37c0-1.49-1.88-2.75-4.12-2.75s-4.81,1.26-4.81,2.75a1.38,1.38,0,0,1-2.75,0c0-3,3.77-5.5,7.56-5.5s6.87,2.47,6.87,5.5A1.37,1.37,0,0,1,76.09,52.06Z"/><path class="cls-12" d="M63,52.06a1.37,1.37,0,0,1-1.37-1.37c0-1.49-2.58-2.75-4.81-2.75s-4.13,1.26-4.13,2.75a1.38,1.38,0,0,1-2.75,0c0-3,3.09-5.5,6.88-5.5s7.56,2.47,7.56,5.5A1.37,1.37,0,0,1,63,52.06Z"/><rect class="cls-12" x="61.66" y="50" width="4.12" height="18.55"/><rect class="cls-9" x="61.66" y="50" width="4.12" height="3.44"/><rect class="cls-3" x="61.66" y="50" width="4.12" height="18.55"/><path class="cls-12" d="M63.72,45.19l-3.44,3.44A1.37,1.37,0,0,0,61.66,50h4.12a1.37,1.37,0,0,0,1.38-1.37Z"/><path class="cls-3" d="M57.87,71.31H69.57a2.4,2.4,0,0,1,2.4,2.4v1.41a1,1,0,0,1-1,1H56.47a1,1,0,0,1-1-1V73.71A2.4,2.4,0,0,1,57.87,71.31Z"/><path class="cls-12" d="M67.84,71.31H59.6a2.07,2.07,0,0,1-2.07-2.07h0a2.07,2.07,0,0,1,2.07-2.06h8.24a2.06,2.06,0,0,1,2.06,2.06h0A2.07,2.07,0,0,1,67.84,71.31Z"/><polygon class="cls-3" points="76.09 52.06 81.59 61 70.59 61 76.09 52.06"/><path class="cls-6" d="M56.85,61a5.5,5.5,0,0,1-11,0Z"/><polygon class="cls-3" points="51.35 52.06 45.85 61 56.85 61 51.35 52.06"/><path class="cls-9" d="M51.35,64.43A5.49,5.49,0,0,1,46.26,61h-.41a5.5,5.5,0,0,0,11,0h-.41A5.49,5.49,0,0,1,51.35,64.43Z"/><path class="cls-3" d="M56.85,61a5.5,5.5,0,0,1-11,0Z"/><path class="cls-6" d="M81.59,61a5.5,5.5,0,0,1-11,0Z"/><path class="cls-9" d="M76.09,64.43A5.49,5.49,0,0,1,71,61h-.41a5.5,5.5,0,0,0,11,0h-.41A5.49,5.49,0,0,1,76.09,64.43Z"/><path class="cls-3" d="M81.59,61a5.5,5.5,0,0,1-11,0Z"/></g></svg>