<svg id="Multicolor" xmlns="http://www.w3.org/2000/svg" viewBox="0 0 100 112"><defs><style>.cls-1{fill:#e8f4fa;}.cls-2{fill:#fff;}.cls-3,.cls-9{fill:none;}.cls-12,.cls-13,.cls-14,.cls-3,.cls-4,.cls-8,.cls-9{stroke:#191816;stroke-linejoin:round;}.cls-3{stroke-linecap:round;}.cls-4,.cls-6{fill:#fff48c;}.cls-5{fill:#ffe500;}.cls-7{fill:#191816;opacity:0.15;}.cls-8{fill:#00b8f0;}.cls-10{fill:#ff6242;}.cls-11,.cls-12{fill:#ff866e;}.cls-13{fill:#6dd627;}.cls-14{fill:#9ceb60;}</style></defs><title>21- bit-and-brick-lego-code-self-learning</title><g id="Background"><g id="New_Symbol_38" data-name="New Symbol 38"><path class="cls-1" d="M90.34,56A40,40,0,1,0,13.9,72.5H86.77A39.7,39.7,0,0,0,90.34,56Z"/><path class="cls-2" d="M13.9,72.5a40,40,0,0,0,72.87,0Z"/><line class="cls-3" x1="10.84" y1="72.5" x2="88.84" y2="72.5"/><line class="cls-3" x1="6.34" y1="72.5" x2="8.84" y2="72.5"/><line class="cls-3" x1="90.84" y1="72.5" x2="93.34" y2="72.5"/></g></g><g id="Scene"><path class="cls-4" d="M43.2,49.44h4.9a1,1,0,0,1,1,1v3.14a0,0,0,0,1,0,0H42.2a0,0,0,0,1,0,0V50.44A1,1,0,0,1,43.2,49.44Z"/><rect class="cls-5" x="24.26" y="53.58" width="27.6" height="11.04" rx="1" ry="1"/><path class="cls-6" d="M25.26,53.58h25.6a1,1,0,0,1,1,1v1.76a0,0,0,0,1,0,0H24.26a0,0,0,0,1,0,0V54.58A1,1,0,0,1,25.26,53.58Z"/><path class="cls-4" d="M28,49.44h4.9a1,1,0,0,1,1,1v3.14a0,0,0,0,1,0,0H27a0,0,0,0,1,0,0V50.44A1,1,0,0,1,28,49.44Z"/><ellipse class="cls-7" cx="57.71" cy="81.27" rx="20.7" ry="1.72"/><rect class="cls-8" x="24.26" y="64.62" width="27.6" height="11.04" rx="1" ry="1"/><rect class="cls-9" x="24.26" y="53.58" width="27.6" height="11.04" rx="1" ry="1"/><rect class="cls-10" x="40.93" y="44.03" width="27.6" height="11.04" rx="1" ry="1" transform="translate(40.27 -22.85) rotate(36.55)"/><path class="cls-11" d="M67.45,55.57l1-1.31a1.16,1.16,0,0,0-.24-1.61L47.86,37.59a1.21,1.21,0,0,0-.86-.22,1.15,1.15,0,0,0-.75.46l-1,1.3Z"/><rect class="cls-9" x="40.93" y="44.03" width="27.6" height="11.04" rx="1" ry="1" transform="translate(40.27 -22.85) rotate(36.55)"/><path class="cls-12" d="M50.7,36.87h4.9a1,1,0,0,1,1,1V41a0,0,0,0,1,0,0H49.7a0,0,0,0,1,0,0V37.87A1,1,0,0,1,50.7,36.87Z" transform="translate(33.64 -24) rotate(36.55)"/><path class="cls-12" d="M61.9,45.91h6.9a0,0,0,0,1,0,0V49a1,1,0,0,1-1,1H62.9a1,1,0,0,1-1-1V45.91a0,0,0,0,1,0,0Z" transform="translate(89.27 125.43) rotate(-143.45)"/><rect class="cls-13" x="38.45" y="59.79" width="37.95" height="20.7" rx="1" ry="1"/><circle class="cls-14" cx="53.11" cy="65.82" r="2.59"/><circle class="cls-14" cx="44.48" cy="65.82" r="2.59"/><circle class="cls-14" cx="44.48" cy="74.45" r="2.59"/><circle class="cls-14" cx="61.73" cy="65.82" r="2.59"/><circle class="cls-14" cx="70.36" cy="65.82" r="2.59"/><circle class="cls-14" cx="53.11" cy="74.45" r="2.59"/><circle class="cls-14" cx="61.73" cy="74.45" r="2.59"/><circle class="cls-14" cx="70.36" cy="74.45" r="2.59"/></g></svg>